<svg xmlns="http://www.w3.org/2000/svg" width="682.667" height="682.667" viewBox="0 0 512 512"><path d="M242.5 13.1c-14.6 4.9-40.1 18.5-75.1 40.1-9.4 5.8-27.4 16.3-40 23.3-43.7 24.4-69.7 40.6-77.4 48.4-5 5-11.3 16.9-13.1 24.7-.8 3.5-1.1 34.1-1.1 105.9-.1 112-.4 106.5 6.6 120.2 6.8 13.6 11.2 16.9 58.7 44.6 24.7 14.4 24.2 14.1 40.4 22.9 11.3 6.2 46.2 26.7 60.5 35.5 10.3 6.4 26.8 14.9 35.4 18.3 10.1 4.1 18.8 4.8 29 2.6 9.9-2.2 35.3-15 54.1-27.2 14.4-9.4 21-13.2 59.7-34.7 31.3-17.5 63.9-36.8 71.8-42.7 3.7-2.8 8.5-6.9 10.7-9.3 5.6-6.1 11-17.7 12.3-26.2.7-4.8 1-39.9.7-106.5-.3-98.5-.3-99.6-2.5-107.3-4.9-17.6-13.2-25.4-49.8-46.9-27.6-16.2-52.3-27-61.8-27-1.9 0-8.2 2.1-14 4.6-17.5 7.7-30 14.6-76.6 42.7-27.5 16.6-51.3 30.4-89.5 51.9-15.2 8.6-28.5 17-31.4 19.9-2.1 2.1-2.1 2.8-2.1 63.8 0 34 .3 62.7.6 63.8.5 2 13.7 11.9 21.2 16 10.5 5.7 25.6 14.4 33 18.9 4.6 2.8 10.5 6.3 13 7.9 13.9 8.2 37.6 18.7 42.5 18.7 3.3 0 25.2-11.3 44.7-23.1 8.5-5.2 23.1-13.7 32.3-18.9s19.2-11.4 22.1-13.7l5.4-4.2.7-11.3c.9-14.8.2-109.4-.8-110.4-1.2-1.2-15.1 6-44.2 22.8-54.9 31.8-60.2 36.8-62.6 59-.6 5.7-1.3 10.5-1.6 10.8-.8.8-13.4-6.3-21.3-12.1-7.8-5.7-12.3-11.4-15.6-19.8-2-5-1.3-9.4 3-18.6 5.1-11 13.4-17.4 44.1-34 9.9-5.4 27.5-15.3 39-22 43.8-25.6 57.7-32.5 64.9-32.5 4.6 0 15.4 4.1 20.9 7.8 5.3 3.7 11.6 10.7 13.3 14.8.7 1.7 2.1 6.5 3.1 10.5 1.6 6.7 1.8 13.3 1.8 71.4 0 63.2 0 64.1-2.2 72.4-1.3 4.6-3.2 9.9-4.4 11.8-4.3 7-21.1 18.2-57.4 38.3-7.1 4-25.3 14.4-40.4 23.3-28.6 16.7-41 22.7-47.3 22.7-2.1 0-7.5-1.6-12.5-3.8-8-3.5-39.1-20.7-55.3-30.5-3.6-2.2-16.6-9.8-29-17-27.5-15.8-37.7-22.4-44-28.3-5.4-5-6.1-6.5-8.7-17.9-1.6-7.3-1.8-13.6-1.8-71.5 0-58.4.1-64.1 1.9-71.5 2.2-9.7 3.6-12.4 8.9-18.2 6.2-6.7 13.9-11.8 38.2-25.3 33.6-18.7 91.6-52.5 123.5-72 7.4-4.5 17.3-10.1 22-12.3 7.6-3.6 9.6-4.1 20.5-5 6.6-.6 12.2-1.2 12.4-1.4.8-.6-5.1-6.3-10.4-10.2-11.3-8.4-37.6-22.1-50.7-26.5-9.6-3.3-19.6-3.4-28.3-.5"/></svg>