<svg xmlns="http://www.w3.org/2000/svg" width="146.667" height="162.667" viewBox="0 0 110 122"><path d="M48.5 1.8c-2.2 1.1-8 4.4-13 7.4-4.9 3-13.4 7.9-18.8 10.9C5.2 26.3 1.4 30.1.5 36.2.1 38.6 0 51.4.2 64.7c.3 22.7.4 24.3 2.4 27 2.4 3.2 6.9 6.4 16.9 11.8 3.9 2.1 12.2 6.9 18.5 10.6 6.3 3.8 12.9 7.2 14.7 7.5 4.2.8 9.2-1.2 21.3-8.5 5.2-3.2 12.7-7.5 16.5-9.6 10-5.4 14.5-8.6 16.9-11.8 2-2.7 2.1-4 2.1-30.7s-.1-28-2.1-30.7c-2.5-3.3-7.6-6.9-16-11.2-8.7-4.4-12.3-4.1-21.7 1.7-2.1 1.3-5.3 3.1-7 4.1-18.3 10.5-31.2 18.2-32.8 19.7-1.7 1.5-1.9 3.2-1.9 16.5v14.7l2.7 2.2c1.6 1.2 6.6 4.5 11.3 7.3 11.5 6.9 14.5 6.9 26 0 4.7-2.8 9.7-6.1 11.3-7.3l2.7-2.2V61.4c0-7.9-.4-14.4-.8-14.4-.5 0-4.4 2.1-8.8 4.8-4.3 2.6-9.2 5.4-10.8 6.2-4 2-6.8 6.8-6.2 10.3L56 71l-4-2c-7.3-3.7-8.9-8.9-4.2-13.9 3.4-3.8 31.9-20.1 35-20.1 3.5 0 8.2 2.8 9.2 5.6 1.5 3.8 1.2 38.4-.3 41.3-.7 1.4-7.5 6-16.7 11.4-20.5 12-19.5 12-40 0-9.2-5.4-16-10-16.7-11.4-1.5-2.9-1.8-37.5-.4-41.3.6-1.5 3.7-4 8.3-6.7 4-2.3 14.8-8.6 24-14.1 9.7-5.7 18-10 19.8-10.1 1.6-.1 3-.5 3-.9C73 7.4 59.9.8 56.2.4c-2.3-.3-5.2.2-7.7 1.4"/></svg>